<svg width="132" height="32" viewBox="0 0 132 32" fill="none" xmlns="http://www.w3.org/2000/svg">
  <path d="M0 1.54541H5.01301V24.2922H0V1.54541Z" fill="#262626" />
  <path d="M6.0625 8.67872H10.699V10.7988H10.7585C10.917 10.5016 11.1151 10.2044 11.3925 9.9072C11.6699 9.60999 12.0068 9.33259 12.3832 9.09482C12.7597 8.85704 13.2154 8.6589 13.691 8.5202C14.1863 8.36169 14.7213 8.30225 15.2959 8.30225C16.5244 8.30225 17.4953 8.48057 18.2483 8.85704C19.0012 9.23352 19.5758 9.74869 19.9919 10.4224C20.408 11.0961 20.6854 11.8688 20.8439 12.7605C21.0024 13.6521 21.0619 14.6428 21.0619 15.693V24.3122H16.2867V16.644C16.2867 16.1883 16.2668 15.7326 16.247 15.2372C16.2074 14.7617 16.1281 14.306 15.9498 13.9097C15.7913 13.4936 15.5337 13.1765 15.2167 12.919C14.8798 12.6614 14.4043 12.5425 13.7901 12.5425C13.1758 12.5425 12.6606 12.6614 12.2842 12.8793C11.9077 13.0973 11.6105 13.4143 11.3925 13.771C11.1944 14.1474 11.0557 14.5635 10.9962 15.0391C10.9368 15.5146 10.8972 16.01 10.8972 16.5252V24.2923H6.0625V8.67872Z" fill="#262626" />
  <path d="M32.2577 12.5225H28.0175V17.7336C28.0175 18.1695 28.0373 18.546 28.0769 18.9027C28.1166 19.2593 28.2156 19.5565 28.3742 19.8141C28.5327 20.0717 28.7506 20.2699 29.0677 20.4086C29.3847 20.5473 29.781 20.6265 30.2961 20.6265C30.5537 20.6265 30.8906 20.6067 31.3067 20.5473C31.7228 20.4878 32.0398 20.3689 32.2577 20.1708V24.1931C31.7228 24.3912 31.168 24.5101 30.5933 24.5695C30.0187 24.629 29.4441 24.6686 28.8893 24.6686C28.0769 24.6686 27.324 24.5894 26.6305 24.411C25.937 24.2327 25.3426 23.9751 24.8274 23.5986C24.3122 23.2222 23.9159 22.7268 23.6187 22.1324C23.3215 21.538 23.1828 20.8048 23.1828 19.9528V12.5225H20.0918V8.67852H23.1828V4.04199H27.9977V8.67852H32.2379V12.5225H32.2577Z" fill="#262626" />
  <path d="M46.5831 21.5974C45.8104 22.5881 44.8395 23.3411 43.6506 23.876C42.4816 24.411 41.2531 24.6884 39.985 24.6884C38.7763 24.6884 37.6469 24.4903 36.5968 24.1138C35.5268 23.7373 34.6153 23.1825 33.8426 22.4494C33.0698 21.7361 32.4358 20.8643 31.9999 19.8537C31.5441 18.8432 31.3262 17.7138 31.3262 16.4853C31.3262 15.237 31.5441 14.1274 31.9999 13.1169C32.4556 12.1064 33.0698 11.2544 33.8426 10.5212C34.6153 9.80792 35.5466 9.25312 36.5968 8.85684C37.6667 8.48037 38.7961 8.28223 39.985 8.28223C41.0946 8.28223 42.1051 8.48037 43.0166 8.85684C43.928 9.23331 44.7008 9.78811 45.3348 10.5212C45.9689 11.2345 46.4444 12.1064 46.8011 13.1169C47.1379 14.1274 47.3163 15.2568 47.3163 16.4853V17.9912H36.141C36.3392 18.9027 36.7553 19.6556 37.3893 20.1906C38.0234 20.7454 38.816 21.003 39.767 21.003C40.5596 21.003 41.2333 20.8246 41.7683 20.468C42.3231 20.1113 42.7986 19.6556 43.1949 19.1008L46.5831 21.5974ZM42.5014 14.7219C42.5212 13.9095 42.2636 13.216 41.689 12.6414C41.1342 12.0667 40.4209 11.7695 39.5293 11.7695C38.9943 11.7695 38.5187 11.8488 38.1225 12.0271C37.7064 12.2054 37.3695 12.4234 37.0723 12.681C36.7751 12.9584 36.5571 13.2556 36.3986 13.6123C36.2401 13.9689 36.141 14.3256 36.1212 14.7219H42.5014Z" fill="#262626" />
  <path
    d="M63.7425 22.9648C63.7425 25.9171 62.9896 28.1561 61.5035 29.7016C60.0175 31.2273 57.7586 32.0001 54.7072 32.0001C53.3202 32.0001 51.9531 31.8416 50.5859 31.5245C49.2385 31.2075 47.9902 30.6131 46.8608 29.7016L49.5357 25.719C50.2887 26.3332 51.0812 26.8286 51.8936 27.205C52.7258 27.5617 53.6175 27.7598 54.6082 27.7598C56.0942 27.7598 57.1642 27.4032 57.8775 26.6899C58.571 25.9765 58.9277 25.0651 58.9277 23.9357V22.4298H58.8682C58.3134 23.1827 57.6199 23.7177 56.7877 24.0149C55.9555 24.332 55.1828 24.4905 54.4496 24.4905C53.3004 24.4905 52.2503 24.2923 51.2992 23.8961C50.3481 23.4998 49.5555 22.945 48.8818 22.2317C48.2082 21.5183 47.693 20.6663 47.3165 19.6756C46.9599 18.6849 46.7617 17.6149 46.7617 16.4261C46.7617 15.3957 46.9202 14.3852 47.2571 13.4143C47.5939 12.4236 48.0695 11.5716 48.6639 10.8187C49.2781 10.0657 50.0113 9.47129 50.9029 8.99574C51.7747 8.54002 52.7853 8.30225 53.8948 8.30225C54.5883 8.30225 55.2026 8.3815 55.7772 8.5202C56.3518 8.67872 56.8472 8.85704 57.3029 9.09482C57.7586 9.33259 58.1351 9.59017 58.4521 9.88739C58.7692 10.1846 59.0267 10.462 59.2249 10.7394H59.2843V8.67872H63.7227V22.9648H63.7425ZM51.5964 16.3865C51.5964 16.9016 51.6955 17.397 51.8936 17.8527C52.0918 18.3084 52.3692 18.7245 52.706 19.0812C53.0627 19.4378 53.4589 19.7152 53.9345 19.9332C54.3902 20.1512 54.9054 20.2502 55.4602 20.2502C55.9952 20.2502 56.4905 20.1512 56.9661 19.9332C57.4416 19.7152 57.8577 19.4378 58.1945 19.0812C58.5512 18.7245 58.8286 18.3283 59.0069 17.8527C59.2051 17.397 59.3041 16.9016 59.3041 16.3865C59.3041 15.8713 59.2051 15.3759 59.0069 14.9202C58.8088 14.4645 58.5314 14.0484 58.1945 13.6917C57.8379 13.3351 57.4218 13.0577 56.9661 12.8397C56.4905 12.6218 55.9952 12.5227 55.4602 12.5227C54.9054 12.5227 54.3902 12.6218 53.9345 12.8397C53.4788 13.0577 53.0627 13.3351 52.706 13.6917C52.3493 14.0484 52.0719 14.4447 51.8936 14.9202C51.6955 15.3759 51.5964 15.8713 51.5964 16.3865Z"
    fill="#262626"
  />
  <path d="M64.7129 8.67872H69.5278V11.1753H69.5872C70.1024 10.2044 70.7166 9.4911 71.4101 9.01556C72.1234 8.54002 73.0151 8.30225 74.085 8.30225C74.3624 8.30225 74.6398 8.32206 74.9172 8.34187C75.1946 8.36169 75.4522 8.40132 75.69 8.46076V12.8595C75.3531 12.7605 75.0163 12.6812 74.6795 12.6218C74.3426 12.5623 74.0058 12.5425 73.6293 12.5425C72.7178 12.5425 71.9847 12.6614 71.4497 12.919C70.9148 13.1765 70.4987 13.5332 70.2213 13.9889C69.924 14.4447 69.7457 14.9995 69.6665 15.6533C69.5872 16.2874 69.5476 17.0007 69.5476 17.7735V24.2923H64.7327V8.67872H64.7129Z" fill="#262626" />
  <path d="M89.1046 21.5974C88.3319 22.5881 87.361 23.3411 86.1721 23.876C85.0031 24.411 83.7746 24.6884 82.5065 24.6884C81.2978 24.6884 80.1684 24.4903 79.1182 24.1138C78.0483 23.7373 77.1368 23.1825 76.3641 22.4494C75.5913 21.7361 74.9573 20.8643 74.5213 19.8537C74.0656 18.8432 73.8477 17.7138 73.8477 16.4853C73.8477 15.237 74.0656 14.1274 74.5213 13.1169C74.9771 12.1064 75.5913 11.2544 76.3641 10.5212C77.1368 9.80792 78.0681 9.25312 79.1182 8.85684C80.1882 8.48037 81.3176 8.28223 82.5065 8.28223C83.6161 8.28223 84.6266 8.48037 85.5381 8.85684C86.4495 9.23331 87.2223 9.78811 87.8563 10.5212C88.4904 11.2345 88.9659 12.1064 89.3226 13.1169C89.6594 14.1274 89.8378 15.2568 89.8378 16.4853V17.9912H78.6625C78.8607 18.9027 79.2768 19.6556 79.9108 20.1906C80.5449 20.7454 81.3374 21.003 82.2885 21.003C83.0811 21.003 83.7548 20.8246 84.2898 20.468C84.8446 20.1113 85.3201 19.6556 85.7164 19.1008L89.1046 21.5974ZM85.0229 14.7219C85.0427 13.9095 84.7851 13.216 84.2105 12.6414C83.6557 12.0667 82.9424 11.7695 82.0508 11.7695C81.5158 11.7695 81.0402 11.8488 80.6439 12.0271C80.2278 12.2054 79.891 12.4234 79.5938 12.681C79.2966 12.9584 79.0786 13.2556 78.9201 13.6123C78.7616 13.9689 78.6625 14.3256 78.6427 14.7219H85.0229Z" fill="#262626" />
  <path d="M89.9375 0H94.7524V24.2923H89.9375V0Z" fill="#262626" />
  <path d="M95.3867 0H100.202V24.2923H95.3867V0Z" fill="#262626" />
  <path
    d="M110.583 22.3307H110.523C109.988 23.1629 109.275 23.7574 108.383 24.1338C107.492 24.4905 106.56 24.6886 105.57 24.6886C104.837 24.6886 104.143 24.5896 103.469 24.3914C102.796 24.1933 102.201 23.8762 101.686 23.48C101.171 23.0639 100.775 22.5685 100.458 21.9741C100.16 21.3796 100.002 20.6861 100.002 19.8936C100.002 19.0019 100.16 18.2292 100.497 17.6149C100.834 17.0007 101.27 16.4855 101.845 16.0694C102.419 15.6533 103.053 15.3561 103.786 15.1183C104.52 14.9004 105.273 14.7221 106.045 14.623C106.818 14.5239 107.611 14.4447 108.383 14.4248C109.156 14.405 109.889 14.3852 110.543 14.3852C110.543 13.5332 110.246 12.8397 109.632 12.3444C109.017 11.849 108.304 11.5914 107.472 11.5914C106.679 11.5914 105.966 11.7499 105.312 12.0868C104.658 12.4236 104.084 12.8793 103.569 13.4539L100.993 10.8187C101.884 9.98646 102.934 9.3524 104.143 8.9363C105.352 8.5202 106.58 8.30225 107.868 8.30225C109.275 8.30225 110.444 8.48057 111.356 8.83723C112.267 9.19389 113 9.70906 113.535 10.4026C114.09 11.0961 114.466 11.9283 114.684 12.919C114.902 13.9097 115.001 15.0589 115.001 16.3666V24.3122H110.563V22.3307H110.583ZM109.394 17.4564C109.037 17.4564 108.582 17.4762 108.027 17.4961C107.472 17.5159 106.957 17.6149 106.461 17.7735C105.966 17.932 105.53 18.1499 105.173 18.4471C104.817 18.7444 104.638 19.1605 104.638 19.6954C104.638 20.27 104.876 20.706 105.372 20.9834C105.867 21.2608 106.382 21.3995 106.917 21.3995C107.393 21.3995 107.848 21.34 108.284 21.2013C108.72 21.0824 109.117 20.8843 109.453 20.6465C109.79 20.4087 110.068 20.1115 110.266 19.7549C110.464 19.3982 110.563 18.9623 110.563 18.467V17.4366H109.394V17.4564Z"
    fill="#262626"
  />
  <path d="M127.961 3.1702L127.922 3.20983C127.208 3.92314 126.059 3.92314 125.366 3.20983L125.326 3.1702C124.613 2.45689 124.613 1.30766 125.326 0.614164L125.366 0.574535C126.079 -0.138777 127.228 -0.138777 127.922 0.574535L127.961 0.614164C128.675 1.32748 128.675 2.4767 127.961 3.1702Z" fill="#8253A8" />
  <path d="M125.286 7.72733L124.652 8.36138C123.84 9.17377 122.532 9.17377 121.739 8.36138L121.105 7.72733C120.293 6.91494 120.293 5.6072 121.105 4.81463L121.739 4.18058C122.552 3.36819 123.86 3.36819 124.652 4.18058L125.286 4.81463C126.099 5.6072 126.099 6.91494 125.286 7.72733Z" fill="#32B56B" />
  <path d="M131.349 12.2652L129.962 13.6522C129.17 14.4448 127.862 14.4448 127.05 13.6522L125.663 12.2652C124.87 11.4726 124.87 10.1649 125.663 9.35252L127.05 7.96552C127.842 7.17295 129.15 7.17295 129.962 7.96552L131.349 9.35252C132.162 10.1649 132.162 11.4528 131.349 12.2652Z" fill="#F5C23D" />
  <path d="M129.129 18.6652L123.72 24.0745C123.462 24.332 123.026 24.332 122.749 24.0745L117.34 18.6652C117.082 18.4076 117.082 17.9717 117.34 17.6943L122.729 12.285C122.987 12.0274 123.423 12.0274 123.7 12.285L129.109 17.6943C129.387 17.9717 129.387 18.4076 129.129 18.6652Z" fill="#2F84C1" />
  <path d="M65.8235 25.9565H66.4179H67.4087C67.7257 25.9565 68.0031 25.9962 68.2408 26.0556C68.4786 26.1349 68.6569 26.2339 68.8155 26.3528C68.974 26.4717 69.1127 26.6104 69.1919 26.7689C69.2712 26.9274 69.3504 27.086 69.4099 27.2445C69.4495 27.403 69.4891 27.5813 69.4891 27.7398C69.4891 27.8983 69.4891 28.0569 69.4693 28.1956C69.4297 28.4928 69.3306 28.7702 69.1919 29.0278C69.0532 29.2853 68.8551 29.5429 68.6173 29.7411C68.3795 29.959 68.1021 30.1175 67.7653 30.2562C67.4285 30.3949 67.0718 30.4544 66.6755 30.4544H65.7839H65.1895L65.8235 25.9565ZM65.883 29.8996H66.6557C66.9133 29.8996 67.1709 29.8599 67.4087 29.8005C67.6464 29.7212 67.8644 29.6222 68.0625 29.4835C68.2607 29.3448 68.4192 29.1665 68.5579 28.9485C68.6966 28.7305 68.7758 28.4928 68.8155 28.2154C68.8353 28.1163 68.8353 28.0172 68.8353 27.8983C68.8353 27.7795 68.8155 27.6606 68.7758 27.5219C68.7362 27.3832 68.6966 27.2643 68.6173 27.1454C68.5579 27.0265 68.4588 26.9274 68.3399 26.8284C68.221 26.7293 68.0823 26.6699 67.904 26.6104C67.7257 26.551 67.5275 26.5312 67.2699 26.5312H66.3585L65.883 29.8996Z" fill="#262626" />
  <path d="M70.2227 27.4424H70.7974L70.3813 30.474H69.8066L70.2227 27.4424ZM70.2426 26.3526C70.2624 26.2337 70.3218 26.1347 70.4011 26.0554C70.5001 25.9762 70.5992 25.9365 70.7181 25.9365C70.837 25.9365 70.9361 25.9762 70.9955 26.0554C71.0748 26.1347 71.0946 26.2337 71.0748 26.3526C71.0549 26.4715 70.9955 26.5706 70.9162 26.6498C70.8172 26.7291 70.7181 26.7687 70.5992 26.7687C70.4803 26.7687 70.3813 26.7291 70.3218 26.6498C70.2426 26.5706 70.2227 26.4715 70.2426 26.3526Z" fill="#262626" />
  <path
    d="M74.1854 30.4547C74.1457 30.6925 74.0863 30.8906 73.9872 31.0888C73.8882 31.2869 73.7495 31.4454 73.5909 31.5841C73.4324 31.7228 73.2343 31.8219 73.0163 31.9012C72.7984 31.9804 72.5606 32.02 72.3228 32.02C72.0256 32.02 71.768 31.9804 71.5501 31.9012C71.3123 31.8219 71.1142 31.6832 70.916 31.4851L71.3717 31.0095C71.4906 31.168 71.6491 31.2869 71.8077 31.386C71.9662 31.4851 72.1643 31.5049 72.3823 31.5049C72.6002 31.5049 72.7786 31.4652 72.9173 31.4058C73.0758 31.3464 73.1947 31.2671 73.2937 31.168C73.3928 31.069 73.4721 30.9501 73.5117 30.8312C73.5711 30.7123 73.5909 30.5736 73.6108 30.4547L73.6702 29.999H73.6504C73.5117 30.1773 73.3532 30.316 73.155 30.3953C72.9569 30.4745 72.7587 30.534 72.5408 30.534C72.3228 30.534 72.1247 30.4943 71.9464 30.4151C71.768 30.3358 71.6293 30.2368 71.5104 30.0981C71.3916 29.9594 71.3123 29.8008 71.2529 29.6027C71.1934 29.4046 71.1934 29.2064 71.233 28.9885C71.2727 28.7705 71.3321 28.5525 71.4312 28.3742C71.5303 28.1761 71.6491 28.0176 71.8077 27.859C71.9662 27.7005 72.1445 27.6015 72.3426 27.5222C72.5408 27.4429 72.7587 27.4033 72.9965 27.4033C73.1947 27.4033 73.3928 27.4429 73.5711 27.542C73.7495 27.6411 73.8882 27.76 73.9674 27.9185H73.9872L74.0467 27.4826H74.6213L74.1854 30.4547ZM72.9767 27.8987C72.8182 27.8987 72.6795 27.9185 72.5606 27.9779C72.4219 28.0374 72.3228 28.0968 72.2238 28.1959C72.1247 28.295 72.0454 28.394 71.986 28.5327C71.9265 28.6714 71.8869 28.8101 71.8671 28.9488C71.8275 29.246 71.8671 29.5036 72.0256 29.682C72.1841 29.8603 72.4021 29.9594 72.7191 29.9594C73.0361 29.9594 73.2739 29.8603 73.4919 29.682C73.69 29.5036 73.8287 29.246 73.8683 28.9488C73.8882 28.7903 73.8882 28.6516 73.8683 28.5327C73.8485 28.394 73.7891 28.295 73.7098 28.1959C73.6306 28.0968 73.5315 28.0374 73.4324 27.9779C73.2541 27.9383 73.1352 27.8987 72.9767 27.8987Z"
    fill="#262626"
  />
  <path d="M75.3946 27.4424H75.9692L75.5531 30.474H74.9785L75.3946 27.4424ZM75.4144 26.3526C75.4342 26.2337 75.4937 26.1347 75.5729 26.0554C75.672 25.9762 75.7711 25.9365 75.89 25.9365C76.0089 25.9365 76.1079 25.9762 76.1674 26.0554C76.2466 26.1347 76.2664 26.2337 76.2466 26.3526C76.2268 26.4715 76.1674 26.5706 76.0881 26.6498C75.989 26.7291 75.89 26.7687 75.7711 26.7687C75.6522 26.7687 75.5531 26.7291 75.4937 26.6498C75.4144 26.5706 75.3946 26.4715 75.4144 26.3526Z" fill="#262626" />
  <path d="M78.3073 27.9381H77.4751L77.277 29.3052C77.2572 29.3845 77.2572 29.4836 77.2572 29.5628C77.2572 29.6421 77.2572 29.7213 77.277 29.7808C77.2968 29.8402 77.3364 29.8997 77.3761 29.9393C77.4355 29.9789 77.5148 29.9987 77.6138 29.9987C77.6733 29.9987 77.7525 29.9987 77.8318 29.9789C77.9111 29.9591 77.9705 29.9393 78.0299 29.8997L77.9507 30.4148C77.9111 30.4347 77.8714 30.4545 77.812 30.4743C77.7724 30.4941 77.7129 30.4941 77.6733 30.4941C77.6337 30.4941 77.5742 30.5139 77.5346 30.5139C77.495 30.5139 77.4553 30.5139 77.4157 30.5139C77.1977 30.5139 77.0194 30.4743 76.9203 30.4148C76.8015 30.3554 76.7222 30.2761 76.6826 30.1771C76.6429 30.078 76.6231 29.9789 76.6231 29.8402C76.6231 29.7015 76.6429 29.6025 76.6628 29.4638L76.8807 27.8786H76.207L76.2863 27.3833H76.96L77.0789 26.5312H77.6535L77.5346 27.3833H78.3668L78.3073 27.9381Z" fill="#262626" />
  <path
    d="M78.9405 27.819C79.1188 27.6605 79.3169 27.5614 79.5547 27.4822C79.7727 27.4029 79.9906 27.3633 80.2086 27.3633C80.4265 27.3633 80.6247 27.3831 80.7634 27.4425C80.9219 27.502 81.0408 27.5812 81.12 27.6605C81.1993 27.7398 81.2785 27.8586 81.2984 27.9775C81.3182 28.0964 81.338 28.2351 81.3182 28.354L81.1002 29.8995C81.0804 29.9986 81.0606 30.0976 81.0606 30.1967C81.0606 30.2958 81.0408 30.375 81.0408 30.4543H80.5256C80.5256 30.375 80.5256 30.2958 80.5454 30.2165C80.5652 30.1373 80.5652 30.058 80.5652 29.9788H80.5454C80.3869 30.1769 80.2086 30.3156 80.0302 30.3949C79.8519 30.4741 79.634 30.5137 79.416 30.5137C79.2773 30.5137 79.1386 30.4939 79.0197 30.4543C78.9008 30.4147 78.8018 30.3552 78.7027 30.276C78.6234 30.1967 78.564 30.0976 78.5046 29.9986C78.4649 29.8797 78.4451 29.7608 78.4847 29.6023C78.5045 29.4041 78.5838 29.2456 78.6829 29.1069C78.7819 28.9682 78.9206 28.8692 79.0792 28.7899C79.2377 28.7106 79.4358 28.6512 79.634 28.6116C79.8321 28.5719 80.0501 28.5521 80.2878 28.5521H80.7039L80.7237 28.4332C80.7436 28.354 80.7237 28.2747 80.7237 28.1955C80.7237 28.1162 80.6643 28.0568 80.6247 27.9973C80.5652 27.9379 80.5058 27.8785 80.4265 27.8586C80.3473 27.819 80.2284 27.7992 80.1095 27.7992C79.9906 27.7992 79.8915 27.819 79.8123 27.8388C79.733 27.8586 79.6538 27.8784 79.5745 27.9181C79.4953 27.9577 79.4358 27.9775 79.3764 28.037C79.3169 28.0964 79.2575 28.1162 79.198 28.1559L78.9405 27.819ZM80.4067 29.0079C80.268 29.0079 80.1293 29.0079 79.9906 29.0277C79.8519 29.0475 79.7132 29.0673 79.5943 29.1069C79.4754 29.1466 79.3566 29.206 79.2773 29.2853C79.198 29.3645 79.1386 29.4636 79.1188 29.5825C79.099 29.7608 79.1386 29.8797 79.2377 29.9589C79.3367 30.0382 79.4953 30.0778 79.6934 30.0778C79.8519 30.0778 79.9906 30.058 80.1095 29.9986C80.2284 29.9391 80.3275 29.8797 80.4067 29.8004C80.486 29.7212 80.5454 29.6221 80.6049 29.523C80.6643 29.424 80.6841 29.3249 80.6841 29.206L80.7237 29.0079H80.4067Z"
    fill="#262626"
  />
  <path d="M82.4667 25.6396H83.0413L82.3676 30.4743H81.793L82.4667 25.6396Z" fill="#262626" />
  <path d="M85.5774 25.9565H86.1917L85.5576 30.4742H84.9434L85.5774 25.9565Z" fill="#262626" />
  <path d="M86.8667 27.4425H87.4413L87.3819 27.9181H87.4017C87.5008 27.7596 87.6395 27.6209 87.8376 27.5218C88.0357 27.4227 88.2339 27.3633 88.4717 27.3633C88.6104 27.3633 88.7491 27.3831 88.8878 27.4227C89.0265 27.4624 89.1255 27.5416 89.2048 27.6209C89.284 27.7199 89.3633 27.8388 89.4029 27.9775C89.4426 28.1162 89.4426 28.2945 89.4227 28.4927L89.1453 30.4345H88.5707L88.8283 28.6512C88.8481 28.5125 88.8481 28.3936 88.8283 28.2945C88.8085 28.1955 88.7689 28.1162 88.7094 28.0568C88.65 27.9973 88.5905 27.9577 88.5113 27.9181C88.432 27.8983 88.3528 27.8784 88.2537 27.8784C88.1348 27.8784 88.0159 27.8983 87.9169 27.9379C87.8178 27.9775 87.7187 28.037 87.6196 28.1162C87.5404 28.1955 87.4611 28.3144 87.4017 28.4332C87.3422 28.5521 87.3026 28.7106 87.2828 28.889L87.0648 30.4543H86.4902L86.8667 27.4425Z" fill="#262626" />
  <path d="M91.8601 27.9381H91.0279L90.8297 29.3052C90.8099 29.3845 90.8099 29.4836 90.8099 29.5628C90.8099 29.6421 90.8099 29.7213 90.8297 29.7808C90.8495 29.8402 90.8892 29.8997 90.9288 29.9393C90.9882 29.9789 91.0675 29.9987 91.1666 29.9987C91.226 29.9987 91.3053 29.9987 91.3845 29.9789C91.4638 29.9591 91.5232 29.9393 91.5827 29.8997L91.5034 30.4148C91.4638 30.4347 91.4242 30.4545 91.3647 30.4743C91.3251 30.4941 91.2656 30.4941 91.226 30.4941C91.1864 30.4941 91.127 30.5139 91.0873 30.5139C91.0477 30.5139 91.0081 30.5139 90.9684 30.5139C90.7505 30.5139 90.5722 30.4743 90.4731 30.4148C90.3542 30.3554 90.2749 30.2761 90.2353 30.1771C90.1957 30.078 90.1759 29.9789 90.1759 29.8402C90.1759 29.7015 90.1957 29.6025 90.2155 29.4638L90.4334 27.8786H89.7598L89.839 27.3833H90.5127L90.6316 26.5312H91.2062L91.0873 27.3833H91.9195L91.8601 27.9381Z" fill="#262626" />
  <path d="M92.7114 29.1664C92.6916 29.3051 92.7114 29.424 92.7511 29.523C92.7907 29.6221 92.8501 29.7212 92.9492 29.8004C93.0285 29.8797 93.1275 29.9391 93.2464 29.9788C93.3653 30.0184 93.4842 30.0382 93.6229 30.0382C93.8012 30.0382 93.9597 29.9986 94.0984 29.9193C94.2371 29.8401 94.3758 29.7212 94.5145 29.5825L94.891 29.9193C94.5145 30.3354 94.039 30.5336 93.4644 30.5336C93.2266 30.5336 93.0087 30.4939 92.8303 30.4147C92.652 30.3354 92.4935 30.2165 92.3944 30.0778C92.2755 29.9391 92.1963 29.7608 92.1567 29.5825C92.117 29.3843 92.0972 29.1862 92.1368 28.9484C92.1765 28.7305 92.2359 28.5125 92.335 28.3144C92.434 28.1162 92.5727 27.9577 92.7313 27.819C92.8898 27.6803 93.0681 27.5614 93.2662 27.4822C93.4644 27.4029 93.6823 27.3633 93.9003 27.3633C94.1777 27.3633 94.3957 27.4029 94.5542 27.502C94.7127 27.6011 94.8712 27.7199 94.9505 27.8784C95.0495 28.037 95.109 28.1955 95.1288 28.3936C95.1486 28.5918 95.1486 28.7701 95.1288 28.9682L95.0892 29.1664H92.7114ZM94.6136 28.7106C94.6334 28.5918 94.6136 28.4729 94.5938 28.354C94.574 28.2549 94.5344 28.1558 94.4749 28.0766C94.4155 27.9973 94.3362 27.9379 94.2371 27.8983C94.1381 27.8586 94.0192 27.8388 93.8607 27.8388C93.722 27.8388 93.5833 27.8586 93.4644 27.9181C93.3455 27.9775 93.2266 28.037 93.1275 28.1162C93.0285 28.1955 92.9492 28.2946 92.8898 28.3936C92.8303 28.4927 92.7907 28.5918 92.7709 28.7106H94.6136Z" fill="#262626" />
  <path
    d="M98.576 30.4547C98.5364 30.6925 98.4769 30.8906 98.3778 31.0888C98.2788 31.2869 98.1401 31.4454 97.9816 31.5841C97.8231 31.7228 97.6249 31.8219 97.407 31.9012C97.189 31.9804 96.9512 32.02 96.7135 32.02C96.4162 32.02 96.1587 31.9804 95.9407 31.9012C95.7029 31.8219 95.5048 31.6832 95.3066 31.4851L95.7624 31.0095C95.8813 31.168 96.0398 31.2869 96.1983 31.386C96.3568 31.4851 96.5549 31.5049 96.7729 31.5049C96.9909 31.5049 97.1692 31.4652 97.3079 31.4058C97.4664 31.3464 97.5853 31.2671 97.6844 31.168C97.7834 31.069 97.8627 30.9501 97.9023 30.8312C97.9618 30.7123 97.9816 30.5736 98.0014 30.4547L98.0608 29.999H98.041C97.9023 30.1773 97.7438 30.316 97.5456 30.3953C97.3475 30.4745 97.1494 30.534 96.9314 30.534C96.7135 30.534 96.5153 30.4943 96.337 30.4151C96.1587 30.3358 96.02 30.2368 95.9011 30.0981C95.7822 29.9594 95.7029 29.8008 95.6435 29.6027C95.584 29.4046 95.584 29.2064 95.6237 28.9885C95.6633 28.7705 95.7227 28.5525 95.8218 28.3742C95.9209 28.1761 96.0398 28.0176 96.1983 27.859C96.3568 27.7005 96.5351 27.6015 96.7333 27.5222C96.9314 27.4429 97.1494 27.4033 97.3871 27.4033C97.5853 27.4033 97.7834 27.4429 97.9617 27.542C98.1401 27.6411 98.2788 27.76 98.358 27.9185H98.3778L98.4373 27.4826H99.0119L98.576 30.4547ZM97.3475 27.8987C97.189 27.8987 97.0503 27.9185 96.9314 27.9779C96.7927 28.0374 96.6936 28.0968 96.5946 28.1959C96.4955 28.295 96.4162 28.394 96.3568 28.5327C96.2974 28.6714 96.2577 28.8101 96.2379 28.9488C96.1983 29.246 96.2379 29.5036 96.3964 29.682C96.5549 29.8603 96.7729 29.9594 97.0899 29.9594C97.407 29.9594 97.6447 29.8603 97.8627 29.682C98.0608 29.5036 98.1995 29.246 98.2391 28.9488C98.259 28.7903 98.259 28.6516 98.2391 28.5327C98.2193 28.394 98.1599 28.295 98.0806 28.1959C98.0014 28.0968 97.9023 28.0374 97.8032 27.9779C97.6447 27.9383 97.506 27.8987 97.3475 27.8987Z"
    fill="#262626"
  />
  <path d="M99.7266 27.4425H100.301L100.242 27.9181H100.262C100.361 27.7596 100.499 27.6209 100.678 27.5218C100.856 27.4227 101.054 27.3633 101.233 27.3633C101.332 27.3633 101.411 27.3831 101.49 27.4029L101.371 28.0171C101.332 27.9973 101.272 27.9973 101.233 27.9775C101.193 27.9577 101.133 27.9577 101.094 27.9577C100.816 27.9577 100.579 28.037 100.42 28.1955C100.242 28.354 100.143 28.5918 100.103 28.9286L99.8852 30.4543H99.3105L99.7266 27.4425Z" fill="#262626" />
  <path
    d="M101.925 27.819C102.103 27.6605 102.301 27.5614 102.539 27.4822C102.757 27.4029 102.975 27.3633 103.193 27.3633C103.411 27.3633 103.609 27.3831 103.748 27.4425C103.906 27.502 104.025 27.5812 104.104 27.6605C104.183 27.7398 104.263 27.8586 104.282 27.9775C104.302 28.0964 104.322 28.2351 104.302 28.354L104.084 29.8995C104.065 29.9986 104.045 30.0976 104.045 30.1967C104.045 30.2958 104.025 30.375 104.025 30.4543H103.51C103.51 30.375 103.51 30.2958 103.53 30.2165C103.549 30.1373 103.549 30.058 103.549 29.9788H103.53C103.371 30.1769 103.193 30.3156 103.014 30.3949C102.836 30.4741 102.618 30.5137 102.4 30.5137C102.261 30.5137 102.123 30.4939 102.004 30.4543C101.885 30.4147 101.786 30.3552 101.687 30.276C101.608 30.1967 101.548 30.0976 101.489 29.9986C101.449 29.8797 101.429 29.7608 101.469 29.6023C101.489 29.4041 101.568 29.2456 101.667 29.1069C101.766 28.9682 101.905 28.8692 102.063 28.7899C102.222 28.7106 102.42 28.6512 102.618 28.6116C102.816 28.5719 103.034 28.5521 103.272 28.5521H103.688L103.708 28.4332C103.728 28.354 103.708 28.2747 103.708 28.1955C103.708 28.1162 103.648 28.0568 103.609 27.9973C103.549 27.9379 103.49 27.8785 103.411 27.8586C103.331 27.819 103.213 27.7992 103.094 27.7992C102.975 27.7992 102.876 27.819 102.796 27.8388C102.717 27.8586 102.638 27.8784 102.559 27.9181C102.479 27.9577 102.42 27.9775 102.361 28.037C102.301 28.0964 102.242 28.1162 102.182 28.1559L101.925 27.819ZM103.391 29.0079C103.252 29.0079 103.113 29.0079 102.975 29.0277C102.836 29.0475 102.697 29.0673 102.578 29.1069C102.46 29.1466 102.341 29.206 102.261 29.2853C102.182 29.3645 102.123 29.4636 102.103 29.5825C102.083 29.7608 102.123 29.8797 102.222 29.9589C102.321 30.0382 102.479 30.0778 102.678 30.0778C102.836 30.0778 102.975 30.058 103.094 29.9986C103.213 29.9391 103.312 29.8797 103.391 29.8004C103.47 29.7212 103.53 29.6221 103.589 29.523C103.648 29.424 103.668 29.3249 103.668 29.206L103.708 29.0079H103.391Z"
    fill="#262626"
  />
  <path d="M106.7 27.9381H105.868L105.67 29.3052C105.65 29.3845 105.65 29.4836 105.65 29.5628C105.65 29.6421 105.65 29.7213 105.67 29.7808C105.689 29.8402 105.729 29.8997 105.769 29.9393C105.828 29.9789 105.907 29.9987 106.006 29.9987C106.066 29.9987 106.145 29.9987 106.224 29.9789C106.304 29.9591 106.363 29.9393 106.423 29.8997L106.343 30.4148C106.304 30.4347 106.264 30.4545 106.205 30.4743C106.165 30.4941 106.105 30.4941 106.066 30.4941C106.026 30.4941 105.967 30.5139 105.927 30.5139C105.888 30.5139 105.848 30.5139 105.808 30.5139C105.59 30.5139 105.412 30.4743 105.313 30.4148C105.194 30.3554 105.115 30.2761 105.075 30.1771C105.036 30.078 105.016 29.9789 105.016 29.8402C105.016 29.7015 105.036 29.6025 105.055 29.4638L105.273 27.8786H104.6L104.679 27.3833H105.353L105.471 26.5312H106.046L105.927 27.3833H106.759L106.7 27.9381Z" fill="#262626" />
  <path d="M107.434 27.4424H108.008L107.592 30.474H107.018L107.434 27.4424ZM107.453 26.3526C107.473 26.2337 107.533 26.1347 107.612 26.0554C107.711 25.9762 107.81 25.9365 107.929 25.9365C108.048 25.9365 108.147 25.9762 108.206 26.0554C108.286 26.1347 108.306 26.2337 108.286 26.3526C108.266 26.4715 108.206 26.5706 108.127 26.6498C108.028 26.7291 107.929 26.7687 107.81 26.7687C107.691 26.7687 107.592 26.7291 107.533 26.6498C107.453 26.5706 107.434 26.4715 107.453 26.3526Z" fill="#262626" />
  <path
    d="M108.424 28.9686C108.464 28.7507 108.523 28.5327 108.642 28.3544C108.761 28.1563 108.9 27.9977 109.058 27.859C109.217 27.7203 109.415 27.6015 109.613 27.5222C109.811 27.4429 110.029 27.4033 110.267 27.4033C110.485 27.4033 110.703 27.4429 110.881 27.5222C111.059 27.6015 111.218 27.7203 111.337 27.859C111.456 27.9977 111.555 28.1761 111.614 28.3544C111.673 28.5525 111.673 28.7507 111.654 28.9686C111.614 29.1866 111.555 29.4046 111.436 29.5829C111.337 29.781 111.198 29.9395 111.02 30.0782C110.861 30.2169 110.663 30.3358 110.465 30.4151C110.267 30.4943 110.049 30.534 109.811 30.534C109.593 30.534 109.375 30.4943 109.197 30.4151C109.018 30.3358 108.86 30.2169 108.741 30.0782C108.622 29.9395 108.523 29.7612 108.464 29.5829C108.404 29.3847 108.404 29.1866 108.424 28.9686ZM109.038 28.9686C109.018 29.1272 109.018 29.2659 109.038 29.3847C109.058 29.5234 109.117 29.6225 109.197 29.7216C109.276 29.8207 109.355 29.8801 109.474 29.9395C109.593 29.999 109.732 30.0188 109.87 30.0188C110.009 30.0188 110.168 29.999 110.286 29.9395C110.425 29.8801 110.524 29.8207 110.623 29.7216C110.722 29.6225 110.802 29.5234 110.861 29.3847C110.921 29.246 110.98 29.1073 111 28.9686C111.02 28.8101 111.02 28.6714 111 28.5525C110.98 28.4138 110.921 28.3148 110.841 28.2157C110.762 28.1166 110.663 28.0572 110.564 27.9977C110.445 27.9383 110.306 27.9185 110.168 27.9185C110.029 27.9185 109.87 27.9383 109.752 27.9977C109.613 28.0572 109.514 28.1166 109.415 28.2157C109.316 28.3148 109.236 28.4138 109.177 28.5525C109.117 28.6912 109.078 28.8101 109.038 28.9686Z"
    fill="#262626"
  />
  <path d="M112.466 27.4425H113.041L112.981 27.9181H113.001C113.1 27.7596 113.239 27.6209 113.437 27.5218C113.635 27.4227 113.833 27.3633 114.071 27.3633C114.21 27.3633 114.348 27.3831 114.487 27.4227C114.626 27.4624 114.725 27.5416 114.804 27.6209C114.883 27.7199 114.963 27.8388 115.002 27.9775C115.042 28.1162 115.042 28.2945 115.022 28.4927L114.745 30.4345H114.17L114.428 28.6512C114.447 28.5125 114.447 28.3936 114.428 28.2945C114.408 28.1955 114.368 28.1162 114.309 28.0568C114.249 27.9973 114.19 27.9577 114.111 27.9181C114.031 27.8983 113.952 27.8784 113.853 27.8784C113.734 27.8784 113.615 27.8983 113.516 27.9379C113.417 27.9775 113.318 28.037 113.219 28.1162C113.14 28.1955 113.06 28.3144 113.001 28.4332C112.942 28.5521 112.902 28.7106 112.882 28.889L112.664 30.4543H112.09L112.466 27.4425Z" fill="#262626" />
</svg>
